<svg xmlns="http://www.w3.org/2000/svg" viewBox="0 0 16 16">
  <!-- Pixelated heart using rectangles -->
  <rect x="4" y="3" width="2" height="2" fill="#ff0066"/>
  <rect x="6" y="3" width="2" height="2" fill="#ff0066"/>
  <rect x="10" y="3" width="2" height="2" fill="#ff0066"/>
  <rect x="12" y="3" width="2" height="2" fill="#ff0066"/>

  <rect x="2" y="5" width="2" height="2" fill="#ff0066"/>
  <rect x="4" y="5" width="2" height="2" fill="#ff0066"/>
  <rect x="6" y="5" width="2" height="2" fill="#ff0066"/>
  <rect x="8" y="5" width="2" height="2" fill="#ff0066"/>
  <rect x="10" y="5" width="2" height="2" fill="#ff0066"/>
  <rect x="12" y="5" width="2" height="2" fill="#ff0066"/>
  <rect x="14" y="5" width="2" height="2" fill="#ff0066"/>

  <rect x="2" y="7" width="2" height="2" fill="#ff0066"/>
  <rect x="4" y="7" width="2" height="2" fill="#ff0066"/>
  <rect x="6" y="7" width="2" height="2" fill="#ff0066"/>
  <rect x="8" y="7" width="2" height="2" fill="#ff0066"/>
  <rect x="10" y="7" width="2" height="2" fill="#ff0066"/>
  <rect x="12" y="7" width="2" height="2" fill="#ff0066"/>
  <rect x="14" y="7" width="2" height="2" fill="#ff0066"/>

  <rect x="4" y="9" width="2" height="2" fill="#ff0066"/>
  <rect x="6" y="9" width="2" height="2" fill="#ff0066"/>
  <rect x="8" y="9" width="2" height="2" fill="#ff0066"/>
  <rect x="10" y="9" width="2" height="2" fill="#ff0066"/>
  <rect x="12" y="9" width="2" height="2" fill="#ff0066"/>

  <rect x="6" y="11" width="2" height="2" fill="#ff0066"/>
  <rect x="8" y="11" width="2" height="2" fill="#ff0066"/>
  <rect x="10" y="11" width="2" height="2" fill="#ff0066"/>

  <rect x="8" y="13" width="2" height="2" fill="#ff0066"/>
</svg>
